<svg width="98" height="51" viewBox="0 0 98 51" fill="none" xmlns="http://www.w3.org/2000/svg">
<path d="M44.6635 42.085H40.9775V13.0981C40.9775 11.6419 40.3405 10.9138 39.0663 10.9138C37.7315 10.9138 37.0641 11.6419 37.0641 13.0981V42.085H33.4237V13.0981C33.4237 11.6419 32.7411 10.9138 31.3759 10.9138C30.1018 10.9138 29.4647 11.6419 29.4647 13.0981V42.085H25.7333V13.0981C25.7333 11.2475 26.2187 9.79137 27.1894 8.72958C28.1602 7.66779 29.5102 7.13689 31.2394 7.13689C32.5136 7.13689 33.8332 7.62228 35.1984 8.59306C36.5939 7.62228 37.9135 7.13689 39.1573 7.13689C40.8259 7.13689 42.1607 7.65262 43.1618 8.68407C44.1629 9.68519 44.6635 11.1565 44.6635 13.0981V42.085ZM61.9267 42.085H56.375C53.0076 42.085 51.3239 40.1889 51.3239 36.3968V35.0316H48.1841L45.9998 31.5277H51.3239V8.0925H61.9267V11.7784H55.0099V31.5277H61.9267V35.0316H55.0099V37.0794C55.0099 37.9591 55.4649 38.399 56.375 38.399H61.9267V42.085ZM77.3352 42.085H73.6493V27.1137L69.3263 19.8784V42.085H65.5948V6.3178L73.6493 20.3789V8.0925H77.3352V42.085ZM94.1807 36.3058C94.1807 38.3687 93.6498 39.9917 92.588 41.1749C91.5262 42.358 90.0549 42.9496 88.174 42.9496C86.3538 42.9496 84.8976 42.358 83.8055 41.1749C82.7437 39.9614 82.2128 38.3384 82.2128 36.3058V8.0925H85.9442V36.3058C85.9442 38.217 86.6875 39.1726 88.174 39.1726C89.7515 39.1726 90.5403 38.217 90.5403 36.3058V8.0925H94.1807V36.3058Z" fill="white"/>
<path d="M8.21558 36.1396C12.3107 36.1396 15.6306 32.82 15.6306 28.7249C15.6306 24.6297 12.3107 21.3101 8.21558 21.3101C4.12045 21.3101 0.800781 24.6297 0.800781 28.7249C0.800781 32.82 4.12045 36.1396 8.21558 36.1396Z" fill="white"/>
</svg>
