<svg width="689" height="489" viewBox="0 0 689 489" fill="none" xmlns="http://www.w3.org/2000/svg">
<path d="M207.576 486.033H164.186V422.575C164.186 414.262 162.988 408.748 160.593 406.033C158.195 403.322 153.127 401.966 145.39 401.966H107.237V486.033H63.8478V401.966H26.4243L0.390625 360.203H63.8478V62.9849C66.7375 62.9849 71.0765 64.0696 76.8646 66.239C82.6443 68.4084 90.599 72.0242 100.729 77.0864C129.288 91.188 152.429 109.267 170.152 131.323C195.101 162.781 207.576 200.566 207.576 244.678C207.576 289.517 192.389 328.025 162.017 360.203C178.847 361.652 190.646 366.805 197.415 375.661C204.186 384.525 207.573 400.163 207.576 422.575L207.576 486.033ZM164.186 249.56C164.186 218.467 154.788 189.902 135.991 163.865C129.72 155.187 120.136 145.425 107.237 134.578V360.203C119.763 350.084 129.161 341.226 135.432 333.627C154.601 308.678 164.186 280.656 164.186 249.56Z" fill="white"/>
<path d="M395.776 407.711C395.776 432.27 389.448 451.592 376.793 465.677C364.132 479.753 346.595 486.792 324.183 486.795C302.488 486.795 285.223 479.666 272.387 465.406C259.548 451.143 253.13 431.912 253.133 407.711V71.8831H297.607V407.66C297.607 430.406 306.466 441.779 324.183 441.779C342.98 441.779 352.381 430.406 352.386 407.66V71.8831H395.776L395.776 407.711ZM307.912 32.29H276.997V0.83252H307.912V32.29ZM371.912 32.29H339.912V0.83252H371.912V32.29Z" fill="white"/>
<path d="M606.208 269.119C606.208 318.237 593.191 361.573 567.157 399.126C548.717 425.126 524.491 447.516 494.48 466.295C473.141 479.295 459.943 485.795 454.887 485.795V52.9849C460.31 52.9849 473.327 59.304 493.937 71.9424C522.625 88.7305 547.402 111.445 566.615 138.569C593.004 176.492 606.202 220.009 606.208 269.119ZM561.191 272.102C561.191 234.865 550.886 200.153 530.276 167.967C524.124 158.204 513.819 146.091 499.361 131.628V409.321C513.098 395.948 523.403 384.378 530.276 374.61C550.886 344.237 561.191 310.068 561.191 272.102Z" fill="white"/>
<path d="M688.1 50.3406H644.711V6.40869H688.1V50.3406ZM688.1 488.032H644.711V82.8828H688.1V488.032Z" fill="white"/>
</svg>
