<svg width="98" height="50" viewBox="0 0 98 50" fill="none" xmlns="http://www.w3.org/2000/svg">
<path d="M37.3097 12.28L39.6777 12.792C38.4297 17.912 36.4137 22.84 33.9497 26.104C33.5337 25.688 32.5737 24.92 32.0297 24.568C34.3977 21.592 36.2537 16.984 37.3097 12.28ZM36.7657 25.848L39.1017 26.328C38.1097 30.52 36.3817 34.584 34.4297 37.272C33.9497 36.888 32.9257 36.248 32.3497 35.96C34.3337 33.496 35.8697 29.688 36.7657 25.848ZM37.0217 18.296H51.4217V20.536H36.0937L37.0217 18.296ZM41.9817 19.224H44.3817V38.648C44.3817 40.024 44.0937 40.728 43.1977 41.112C42.3337 41.528 40.9577 41.592 38.9737 41.592C38.8137 40.92 38.4617 39.864 38.1097 39.16C39.6137 39.224 40.9897 39.192 41.4377 39.192C41.8537 39.192 41.9817 39.064 41.9817 38.648V19.224ZM46.6857 26.328L48.8297 25.624C50.6857 28.984 52.2857 33.4 52.8297 36.376L50.5577 37.144C50.0457 34.2 48.4457 29.688 46.6857 26.328ZM50.7177 18.296H51.0377L51.4537 18.232L53.1177 18.584C52.6697 20.952 52.1257 23.704 51.7097 25.432L49.6297 25.048C49.9817 23.448 50.3977 20.76 50.7177 18.648V18.296ZM30.8777 12.248L33.1497 12.952C31.0377 18.392 27.7417 23.8 24.2857 27.384C24.0297 26.84 23.3577 25.56 22.9097 25.016C26.0777 21.912 29.0857 17.112 30.8777 12.248ZM27.5497 20.504L29.7897 18.232L29.8537 18.264V41.528H27.5497V20.504ZM68.7337 13.784H82.7817V16.024H68.7337V13.784ZM67.6457 25.016H85.2457V27.32H67.6457V25.016ZM75.1977 20.76H77.5977V38.552C77.5977 39.992 77.2457 40.696 76.2537 41.08C75.1977 41.464 73.5337 41.528 70.9737 41.496C70.8457 40.856 70.4297 39.8 70.1097 39.16C72.1257 39.224 73.9177 39.224 74.4937 39.192C75.0377 39.16 75.1977 39 75.1977 38.52V20.76ZM81.9177 13.784H82.4937L83.0057 13.656L84.5737 14.808C82.6537 17.528 79.6777 20.632 77.1177 22.552C76.7657 22.104 76.0937 21.464 75.6777 21.144C77.9817 19.416 80.6377 16.408 81.9177 14.328V13.784ZM55.8057 18.744H66.3337V20.984H55.8057V18.744ZM60.6377 12.152L62.9097 12.408C61.6937 18.808 59.6777 27.448 58.2377 32.76L56.2217 31.704C57.6297 26.808 59.5497 18.232 60.6377 12.152ZM57.4057 30.68L58.7497 29.016C62.3337 31.032 66.5577 34.104 68.4777 36.472L67.0377 38.424C65.1177 36.024 60.9897 32.76 57.4057 30.68ZM65.5337 18.744H65.9177L66.3657 18.648L67.8057 18.936C66.9417 31.32 63.4537 38.104 57.5657 41.624C57.2457 41.048 56.5737 40.184 56.0617 39.704C61.4057 36.888 64.7337 30.104 65.5337 19.224V18.744Z" fill="white"/>
<path d="M15 29C15 28.0807 14.8189 27.1705 14.4672 26.3212C14.1154 25.4719 13.5998 24.7003 12.9497 24.0503L8 29H15Z" fill="white"/>
</svg>
