<svg width="98" height="50" viewBox="0 0 98 50" fill="none" xmlns="http://www.w3.org/2000/svg">
<path d="M24.2537 38V19.088H26.7177V27.216H31.6137V19.088H34.0777V38H31.6137V29.072H26.7177V38H24.2537ZM37.7224 38V19.088H46.0424V20.848H40.3144V27.184H44.9544V29.104H40.3144V36.272H46.0424V38H37.7224ZM48.5974 38V19.088H51.0614V36.272H56.0534V38H48.5974ZM58.0974 38V19.088H60.5614V36.272H65.5534V38H58.0974ZM72.2054 38.384C71.2454 38.384 70.4028 38.2667 69.6774 38.032C68.9521 37.8187 68.3761 37.36 67.9494 36.656C67.5228 35.952 67.3094 34.896 67.3094 33.488V23.056C67.3094 21.8827 67.5228 20.9973 67.9494 20.4C68.3761 19.7813 68.9521 19.3653 69.6774 19.152C70.4241 18.9387 71.2774 18.832 72.2374 18.832C73.1974 18.832 74.0401 18.9493 74.7654 19.184C75.5121 19.3973 76.0988 19.8027 76.5254 20.4C76.9521 20.9973 77.1654 21.8827 77.1654 23.056V33.488C77.1654 34.9173 76.9521 35.984 76.5254 36.688C76.0988 37.3707 75.5121 37.8187 74.7654 38.032C74.0188 38.2667 73.1654 38.384 72.2054 38.384ZM72.2054 36.88C72.6961 36.88 73.1228 36.816 73.4854 36.688C73.8694 36.56 74.1681 36.3147 74.3814 35.952C74.5948 35.568 74.7014 35.0027 74.7014 34.256V22.992C74.7014 22.2667 74.5948 21.7227 74.3814 21.36C74.1681 20.976 73.8694 20.72 73.4854 20.592C73.1228 20.464 72.6961 20.4 72.2054 20.4C71.7148 20.4 71.2881 20.464 70.9254 20.592C70.5628 20.72 70.2748 20.976 70.0614 21.36C69.8481 21.7227 69.7414 22.2667 69.7414 22.992V34.256C69.7414 35.0027 69.8481 35.568 70.0614 35.952C70.2748 36.3147 70.5628 36.56 70.9254 36.688C71.2881 36.816 71.7148 36.88 72.2054 36.88Z" fill="white"/>
<path d="M15 29C15 28.0807 14.8189 27.1705 14.4672 26.3212C14.1154 25.4719 13.5998 24.7003 12.9497 24.0503L8 29H15Z" fill="white"/>
</svg>
