<svg width="98" height="50" viewBox="0 0 98 50" fill="none" xmlns="http://www.w3.org/2000/svg">
<path d="M24.2537 38V19.088H33.8857V38H31.2937V20.88H26.8457V38H24.2537ZM37.5349 38V19.088H43.6469C44.7776 19.088 45.6629 19.3547 46.3029 19.888C46.9643 20.4 47.2949 21.1893 47.2949 22.256V25.68C47.2949 26.4267 47.1883 27.1307 46.9749 27.792C46.7829 28.4533 46.3989 28.9867 45.8229 29.392C45.2469 29.7973 44.4149 30 43.3269 30H40.1269V38H37.5349ZM40.1269 28.56H42.5269C43.2949 28.56 43.8709 28.304 44.2549 27.792C44.6389 27.28 44.8309 26.4693 44.8309 25.36V23.248C44.8309 22.288 44.6496 21.5947 44.2869 21.168C43.9456 20.72 43.5083 20.496 42.9749 20.496H40.1269V28.56ZM49.9724 38V19.088H52.1804V32.976L57.5884 19.088H59.7964V38H57.5564V24.688L52.2124 38H49.9724ZM63.4412 38V19.088H69.5212C70.6092 19.088 71.4839 19.3547 72.1452 19.888C72.8065 20.4 73.1372 21.1893 73.1372 22.256V24.496C73.1372 25.0933 73.0519 25.6267 72.8812 26.096C72.7105 26.544 72.4759 26.9067 72.1772 27.184C71.8785 27.4613 71.5265 27.6533 71.1212 27.76C70.7372 27.8667 70.3959 27.9307 70.0972 27.952V27.92C70.5025 27.92 70.8972 27.9733 71.2812 28.08C71.6652 28.1653 71.9959 28.336 72.2732 28.592C72.6145 28.8907 72.8812 29.2747 73.0732 29.744C73.2652 30.2133 73.3612 30.768 73.3612 31.408V34.096C73.3612 35.1627 73.1799 35.984 72.8172 36.56C72.4759 37.1147 71.9959 37.4987 71.3772 37.712C70.7585 37.904 70.0225 38 69.1692 38H63.4412ZM65.9372 36.624H68.6892C69.1372 36.624 69.5212 36.56 69.8412 36.432C70.1612 36.304 70.4065 36.048 70.5772 35.664C70.7692 35.2587 70.8652 34.6827 70.8652 33.936V31.44C70.8652 30.4587 70.6305 29.808 70.1612 29.488C69.7132 29.168 69.1372 29.008 68.4332 29.008H65.9372V36.624ZM65.9372 27.408H68.3692C69.1372 27.408 69.7239 27.1947 70.1292 26.768C70.5345 26.32 70.7372 25.6587 70.7372 24.784V22.672C70.7372 21.9253 70.5452 21.3813 70.1612 21.04C69.7985 20.6773 69.3505 20.496 68.8172 20.496H65.9372V27.408ZM76.5662 38V19.088H84.8862V20.848H79.1582V27.184H83.7982V29.104H79.1582V36.272H84.8862V38H76.5662ZM89.0732 38V20.848H85.9372V19.088H94.7052V20.848H91.5372V38H89.0732Z" fill="white"/>
<path d="M15 29C15 28.0807 14.8189 27.1705 14.4672 26.3212C14.1154 25.4719 13.5998 24.7003 12.9497 24.0503C12.2997 23.4002 11.5281 22.8846 10.6788 22.5328C9.8295 22.1811 8.91925 22 8 22L8 29H15Z" fill="white"/>
</svg>
