<svg width="98" height="50" viewBox="0 0 98 50" fill="none" xmlns="http://www.w3.org/2000/svg">
<path d="M43.8627 42H40.1768V13.0131C40.1768 11.557 39.5397 10.8289 38.2655 10.8289C36.9307 10.8289 36.2633 11.557 36.2633 13.0131V42H32.6229V13.0131C32.6229 11.557 31.9403 10.8289 30.5751 10.8289C29.301 10.8289 28.6639 11.557 28.6639 13.0131V42H24.9325V13.0131C24.9325 11.1626 25.4179 9.70641 26.3886 8.64461C27.3594 7.58283 28.7094 7.05193 30.4386 7.05193C31.7128 7.05193 33.0324 7.53732 34.3976 8.5081C35.7931 7.53732 37.1127 7.05193 38.3565 7.05193C40.0251 7.05193 41.3599 7.56766 42.361 8.59911C43.3621 9.60023 43.8627 11.0716 43.8627 13.0131V42ZM61.1259 42H55.5743C52.2069 42 50.5232 40.1039 50.5232 36.3118V34.9467H47.3833L45.199 31.4428H50.5232V8.00754H61.1259V11.6935H54.2091V31.4428H61.1259V34.9467H54.2091V36.9944C54.2091 37.8742 54.6641 38.3141 55.5743 38.3141H61.1259V42ZM76.5344 42H72.8485V27.0288L68.5255 19.7934V42H64.7941V6.23283L72.8485 20.294V8.00754H76.5344V42ZM93.3799 36.2208C93.3799 38.2837 92.849 39.9068 91.7872 41.0899C90.7254 42.273 89.2541 42.8646 87.3732 42.8646C85.553 42.8646 84.0968 42.273 83.0047 41.0899C81.9429 39.8764 81.412 38.2534 81.412 36.2208V8.00754H85.1435V36.2208C85.1435 38.132 85.8867 39.0877 87.3732 39.0877C88.9507 39.0877 89.7395 38.132 89.7395 36.2208V8.00754H93.3799V36.2208Z" fill="white"/>
<circle cx="8" cy="29" r="7" fill="white"/>
</svg>
