<svg width="101" height="50" viewBox="0 0 101 50" fill="none" xmlns="http://www.w3.org/2000/svg">
<path d="M28.8937 38.384C27.9124 38.384 27.027 38.2667 26.2377 38.032C25.4697 37.7973 24.8617 37.3173 24.4137 36.592C23.987 35.8453 23.7737 34.736 23.7737 33.264V23.056C23.7737 21.904 23.987 21.0293 24.4137 20.432C24.8617 19.8133 25.4697 19.3867 26.2377 19.152C27.027 18.9173 27.923 18.8 28.9257 18.8C29.9497 18.8 30.835 18.928 31.5817 19.184C32.3284 19.4187 32.915 19.8453 33.3417 20.464C33.7684 21.0613 33.9817 21.9253 33.9817 23.056V26.768H30.9097V22.96C30.9097 22.2987 30.8244 21.8187 30.6537 21.52C30.483 21.2 30.2484 20.9867 29.9497 20.88C29.651 20.7733 29.3097 20.72 28.9257 20.72C28.5417 20.72 28.2004 20.7733 27.9017 20.88C27.603 20.9867 27.3684 21.2 27.1977 21.52C27.027 21.8187 26.9417 22.2987 26.9417 22.96V34.32C26.9417 34.96 27.027 35.44 27.1977 35.76C27.3684 36.08 27.603 36.2933 27.9017 36.4C28.2004 36.5067 28.5417 36.56 28.9257 36.56C29.331 36.56 29.6724 36.5067 29.9497 36.4C30.2484 36.2933 30.483 36.08 30.6537 35.76C30.8244 35.44 30.9097 34.96 30.9097 34.32V30.928H33.9817V33.232C33.9817 34.7467 33.7684 35.8667 33.3417 36.592C32.915 37.3173 32.3284 37.7973 31.5817 38.032C30.835 38.2667 29.939 38.384 28.8937 38.384ZM43.6917 20.208C45.441 20.208 46.9877 20.5387 48.3317 21.2C49.6757 21.84 50.7317 22.8213 51.4997 24.144C52.2677 25.4453 52.6517 27.1093 52.6517 29.136C52.6517 31.1627 52.2997 32.8587 51.5957 34.224C50.913 35.5893 49.953 36.6133 48.7157 37.296C47.4784 37.9787 46.0384 38.32 44.3957 38.32C42.7957 38.32 41.409 38.0107 40.2357 37.392C39.0624 36.7733 38.1557 35.8773 37.5157 34.704C36.8757 33.5093 36.5557 32.0693 36.5557 30.384V28.08H47.8197C47.777 26.736 47.3717 25.68 46.6037 24.912C45.857 24.144 44.8117 23.76 43.4677 23.76C42.3584 23.76 41.3344 23.8773 40.3957 24.112C39.4784 24.3253 38.529 24.6667 37.5477 25.136V21.456C38.4224 21.0293 39.329 20.72 40.2677 20.528C41.2064 20.3147 42.3477 20.208 43.6917 20.208ZM41.0357 31.248C41.057 31.952 41.185 32.5813 41.4197 33.136C41.6544 33.6907 42.017 34.128 42.5077 34.448C42.9984 34.768 43.617 34.928 44.3637 34.928C45.3024 34.928 46.0704 34.6293 46.6677 34.032C47.2864 33.4347 47.6384 32.5067 47.7237 31.248H41.0357ZM54.5659 38V36.4C54.9713 36.4 55.3339 36.176 55.6539 35.728C55.9739 35.28 56.1553 34.6933 56.1979 33.968L57.2219 22.16H66.3099V38H63.2379V24.336H60.2619L59.2699 34.8C59.2273 35.0987 59.1739 35.44 59.1099 35.824C59.0673 36.1867 58.9499 36.5387 58.7579 36.88C58.5873 37.2 58.3206 37.4667 57.9579 37.68C57.5953 37.8933 57.0833 38 56.4219 38H54.5659ZM75.9729 20.208C77.7223 20.208 79.2689 20.5387 80.6129 21.2C81.9569 21.84 83.0129 22.8213 83.7809 24.144C84.5489 25.4453 84.9329 27.1093 84.9329 29.136C84.9329 31.1627 84.5809 32.8587 83.8769 34.224C83.1943 35.5893 82.2343 36.6133 80.9969 37.296C79.7596 37.9787 78.3196 38.32 76.6769 38.32C75.0769 38.32 73.6903 38.0107 72.5169 37.392C71.3436 36.7733 70.4369 35.8773 69.7969 34.704C69.1569 33.5093 68.8369 32.0693 68.8369 30.384V28.08H80.1009C80.0583 26.736 79.6529 25.68 78.8849 24.912C78.1383 24.144 77.0929 23.76 75.7489 23.76C74.6396 23.76 73.6156 23.8773 72.6769 24.112C71.7596 24.3253 70.8103 24.6667 69.8289 25.136V21.456C70.7036 21.0293 71.6103 20.72 72.5489 20.528C73.4876 20.3147 74.6289 20.208 75.9729 20.208ZM73.3169 31.248C73.3383 31.952 73.4663 32.5813 73.7009 33.136C73.9356 33.6907 74.2983 34.128 74.7889 34.448C75.2796 34.768 75.8983 34.928 76.6449 34.928C77.5836 34.928 78.3516 34.6293 78.9489 34.032C79.5676 33.4347 79.9196 32.5067 80.0049 31.248H73.3169ZM87.5192 38V22.16H91.1992L94.2392 34.16L97.3112 22.16H100.927V38H98.4632V26.416L95.2952 38H93.1832L90.0152 26.416V38H87.5192Z" fill="white"/>
<path d="M15 29C15 27.3805 14.4385 25.8111 13.4111 24.5592C12.3837 23.3074 10.954 22.4504 9.36563 22.1345C7.77726 21.8186 6.12848 22.0631 4.70022 22.8266C3.27196 23.59 2.15259 24.825 1.53284 26.3212C0.913093 27.8174 0.831305 29.4822 1.30142 31.032C1.77153 32.5817 2.76445 33.9205 4.11101 34.8203C5.45756 35.72 7.07443 36.125 8.68612 35.9663C10.2978 35.8076 11.8046 35.0949 12.9497 33.9497L8 29H15Z" fill="white"/>
</svg>
