<svg width="114" height="26" viewBox="0 0 114 26" fill="none" xmlns="http://www.w3.org/2000/svg">
<path d="M42.4348 24.7444C48.9916 24.7444 54.307 19.4291 54.307 12.8723C54.307 6.3154 48.9916 1 42.4348 1C35.8779 1 30.5625 6.3154 30.5625 12.8723C30.5625 19.4291 35.8779 24.7444 42.4348 24.7444Z" stroke="black" stroke-width="0.715034"/>
<path d="M71.8723 24.7444C78.4291 24.7444 83.7445 19.4291 83.7445 12.8723C83.7445 6.3154 78.4291 1 71.8723 1C65.3154 1 60 6.3154 60 12.8723C60 19.4291 65.3154 24.7444 71.8723 24.7444Z" stroke="black" stroke-width="0.715034"/>
<path d="M101.318 24.7444C107.874 24.7444 113.19 19.4291 113.19 12.8723C113.19 6.3154 107.874 1 101.318 1C94.7607 1 89.4453 6.3154 89.4453 12.8723C89.4453 19.4291 94.7607 24.7444 101.318 24.7444Z" stroke="black" stroke-width="0.715034"/>
<path d="M12.8723 24.7444C19.4291 24.7444 24.7445 19.4291 24.7445 12.8723C24.7445 6.3154 19.4291 1 12.8723 1C6.3154 1 1 6.3154 1 12.8723C1 19.4291 6.3154 24.7444 12.8723 24.7444Z" stroke="black" stroke-width="0.715034"/>
<path d="M12.8546 21.8116C17.8505 21.8116 21.9006 17.7616 21.9006 12.7657C21.9006 7.76978 17.8505 3.71973 12.8546 3.71973C7.85864 3.71973 3.80859 7.76978 3.80859 12.7657C3.80859 17.7616 7.85864 21.8116 12.8546 21.8116Z" fill="black"/>
</svg>
