<svg width="24" height="25" viewBox="0 0 24 25" fill="none" xmlns="http://www.w3.org/2000/svg">
<path fill-rule="evenodd" clip-rule="evenodd" d="M0.224011 7.65827C0.636137 5.77865 1.60074 4.06254 2.99588 2.72688C4.8667 0.935801 7.37801 -0.0445218 9.97731 0.00155371C12.5766 0.0476292 15.0511 1.11635 16.8563 2.97259C18.2024 4.35685 19.1046 6.10607 19.4488 7.9991C19.793 9.89213 19.5637 11.8439 18.79 13.6076C18.3754 14.5526 17.8144 15.421 17.132 16.1834C17.226 16.2597 17.3093 16.3492 17.379 16.4499C17.5582 16.7192 17.5612 17.0151 17.5635 17.2422C17.5655 17.4291 17.5669 17.5694 17.6656 17.61C17.8034 17.6666 17.991 17.4715 18.1915 17.2628C18.4139 17.0315 18.6523 16.7835 18.8564 16.8439C18.9999 16.8866 19.0439 17.0572 19.1082 17.3071C19.1525 17.479 19.2065 17.6886 19.3093 17.9198C19.5492 18.409 19.9043 18.8337 20.3447 19.1578C21.9349 20.5579 24.1193 24.9227 23.9939 25C23.7898 24.8017 23.6006 24.5891 23.4275 24.3637C22.9891 23.8666 22.4444 23.4729 21.8332 23.2111L21.8323 23.2116C21.8299 23.2113 21.8336 23.191 21.8399 23.1566C21.8658 23.0149 21.9351 22.6357 21.7956 22.4564C21.7082 22.3439 21.5064 22.2683 21.0395 22.3572C21.0001 22.0534 20.878 21.7661 20.6865 21.5259C20.5143 21.318 20.3634 21.2536 20.1441 21.16C19.9971 21.0972 19.8194 21.0214 19.584 20.8804C19.2383 20.6733 19.005 20.4674 18.8196 20.3037C18.5627 20.0771 18.3976 19.9313 18.1528 19.9752C18.011 20.0006 17.9132 20.0769 17.8299 20.1419C17.7411 20.2112 17.6688 20.2675 17.5774 20.2354C17.4464 20.1894 17.4106 20.0086 17.3749 19.8281C17.3399 19.6512 17.305 19.4746 17.1804 19.4254C17.0747 19.3839 16.8939 19.4295 16.563 19.7756C15.816 19.3712 15.655 19.0442 15.6589 18.8128C15.662 18.6255 15.7736 18.4569 15.8651 18.3188C15.9486 18.1927 16.0153 18.092 15.9676 18.0254C15.9262 17.9678 15.8309 17.9796 15.7203 17.9933C15.5893 18.0095 15.4371 18.0283 15.3282 17.9376C15.3011 17.9151 15.2695 17.8797 15.246 17.8139C15.1982 17.8456 15.15 17.8769 15.1016 17.9077C13.4707 18.9477 11.5656 19.4844 9.62719 19.4501C7.6888 19.4157 5.80416 18.8118 4.21169 17.7147C2.61922 16.6176 1.39046 15.0767 0.680668 13.2866C-0.0291277 11.4966 -0.188114 9.53789 0.224011 7.65827ZM11.1351 17.056C12.5963 16.7944 13.9464 16.1088 15.0148 15.0859C15.7243 14.4067 16.2919 13.5956 16.6854 12.6987C17.0788 11.8018 17.2904 10.8368 17.308 9.85883C17.3256 8.88083 17.1489 7.90898 16.788 6.99875C16.4271 6.08852 15.889 5.25778 15.2044 4.55388C14.1735 3.49375 12.8489 2.76072 11.3981 2.44756C9.94727 2.1344 8.43541 2.25516 7.05376 2.79452C5.6721 3.33387 4.48277 4.26758 3.63597 5.47766C2.78918 6.68774 2.32304 8.11988 2.29652 9.59281C2.27 11.0657 2.68423 12.5134 3.48693 13.7527C4.28963 14.992 5.44476 15.9673 6.80611 16.5553C8.16747 17.1432 9.67394 17.3175 11.1351 17.056Z" fill="black"/>
</svg>
