<svg width="64" height="46" viewBox="0 0 64 46" fill="none" xmlns="http://www.w3.org/2000/svg">
<path d="M19.0546 44.7307H15.0346V38.9241C15.0346 38.1632 14.9188 37.6669 14.6872 37.4353C14.4887 37.1706 14.0421 37.0382 13.3473 37.0382H9.92287V44.7307H5.90294V37.0382H2.47855L0.0963696 33.2168H5.90294V6.02024C6.16763 6.02024 6.56466 6.1195 7.09403 6.31801C7.62341 6.51653 8.3513 6.84739 9.2777 7.31059C11.8915 8.60094 14.009 10.2552 15.6302 12.2735C17.9131 15.1519 19.0546 18.6094 19.0546 22.6459C19.0546 26.7485 17.6815 30.2722 14.9354 33.2168C16.4573 33.3492 17.5161 33.8289 18.1116 34.6561C18.7403 35.4501 19.0546 36.8728 19.0546 38.9241V44.7307ZM15.0346 23.0926C15.0346 20.2472 14.191 17.6334 12.5036 15.2512C11.9411 14.4571 11.0809 13.5638 9.92287 12.5712V33.2168C11.0478 32.2904 11.8915 31.4798 12.4539 30.785C14.1744 28.5021 15.0346 25.9379 15.0346 23.0926ZM36.2618 38.4279C36.2618 40.6777 35.6828 42.4478 34.5248 43.7381C33.3668 45.0285 31.7621 45.6737 29.7108 45.6737C27.7257 45.6737 26.1375 45.0285 24.9464 43.7381C23.7884 42.4147 23.2094 40.6446 23.2094 38.4279V7.65799H27.279V38.4279C27.279 40.5123 28.0896 41.5545 29.7108 41.5545C31.4313 41.5545 32.2915 40.5123 32.2915 38.4279V7.65799H36.2618V38.4279ZM34.0781 4.03509H31.15V1.15662H34.0781V4.03509ZM28.2219 4.03509H25.3931V1.15662H28.2219V4.03509ZM55.5248 25.8221C55.5248 30.3218 54.3337 34.2921 51.9515 37.7331C50.2641 40.1152 48.0474 42.1666 45.3012 43.887C43.3492 45.0781 42.1415 45.6737 41.6783 45.6737V6.02024C42.1746 6.02024 43.3657 6.59924 45.2516 7.75725C47.9316 9.34537 50.1483 11.3802 51.9019 13.8616C54.3171 17.3356 55.5248 21.3225 55.5248 25.8221ZM51.4056 26.0703C51.4056 22.6624 50.4626 19.4862 48.5767 16.5415C48.0143 15.6482 47.0713 14.5399 45.7479 13.2164V38.6264C47.0052 37.4022 47.9481 36.3434 48.5767 35.4501C50.4626 32.6709 51.4056 29.5443 51.4056 26.0703ZM63.0986 44.7307H59.029V7.65799H63.0986V44.7307ZM63.0986 4.68026H59.1283V0.660325H63.0986V4.68026Z" fill="black"/>
</svg>
