<svg width="147" height="106" viewBox="0 0 147 106" fill="none" xmlns="http://www.w3.org/2000/svg">
<path d="M44.177 103H34.8596V89.5416C34.8596 87.7778 34.5912 86.6275 34.0544 86.0907C33.5943 85.4772 32.559 85.1705 30.9486 85.1705H23.0116V103H13.6942V85.1705H5.75721L0.2358 76.3132H13.6942V13.2771C14.3077 13.2771 15.228 13.5072 16.4549 13.9673C17.6819 14.4274 19.369 15.1943 21.5162 16.2679C27.5744 19.2586 32.4824 23.093 36.24 27.7708C41.5313 34.4425 44.177 42.4562 44.177 51.8119C44.177 61.321 40.9945 69.4881 34.6296 76.3132C38.1571 76.6199 40.6111 77.7319 41.9914 79.649C43.4485 81.4895 44.177 84.787 44.177 89.5416V103ZM34.8596 52.8472C34.8596 46.2522 32.9041 40.194 28.9931 34.6726C27.6895 32.8321 25.6956 30.7616 23.0116 28.461V76.3132C25.6189 74.166 27.5744 72.2872 28.8781 70.6768C32.8658 65.3854 34.8596 59.4422 34.8596 52.8472ZM84.0598 88.3913C84.0598 93.6059 82.7178 97.7087 80.0338 100.699C77.3498 103.69 73.6305 105.186 68.876 105.186C64.2748 105.186 60.5938 103.69 57.8331 100.699C55.1491 97.632 53.8071 93.5293 53.8071 88.3913V17.0731H63.2395V88.3913C63.2395 93.2225 65.1183 95.6381 68.876 95.6381C72.8636 95.6381 74.8575 93.2225 74.8575 88.3913V17.0731H84.0598V88.3913ZM78.9985 8.67594H72.2118V2.00424H78.9985V8.67594ZM65.4251 8.67594H58.8684V2.00424H65.4251V8.67594ZM128.707 59.1738C128.707 69.6031 125.947 78.8055 120.425 86.7809C116.514 92.3023 111.376 97.0568 105.011 101.045C100.487 103.805 97.6878 105.186 96.6142 105.186V13.2771C97.7645 13.2771 100.525 14.6191 104.896 17.3031C111.108 20.9841 116.246 25.7003 120.31 31.4517C125.908 39.5038 128.707 48.7445 128.707 59.1738ZM119.16 59.749C119.16 51.8503 116.974 44.4884 112.603 37.6633C111.3 35.5928 109.114 33.0238 106.047 29.9564V88.8514C108.961 86.014 111.146 83.56 112.603 81.4895C116.974 75.0479 119.16 67.801 119.16 59.749ZM146.262 103H136.83V17.0731H146.262V103ZM146.262 10.1713H137.06V0.853942H146.262V10.1713Z" fill="white"/>
</svg>
